<svg xmlns="http://www.w3.org/2000/svg" xmlns:xlink="http://www.w3.org/1999/xlink" data-name="Layer 1" viewBox="0 0 500 500"><defs><linearGradient id="a" x1="438.22" x2="458.12" y1="119.49" y2="236.35" gradientUnits="userSpaceOnUse"><stop offset="0" stop-color="#f5e18a" class="stopColorf5e18a svgShape"/><stop offset="1" stop-color="#ebba60" class="stopColorebba60 svgShape"/></linearGradient><linearGradient id="i" x1="400.65" x2="414.82" y1="637.21" y2="720.39" gradientTransform="matrix(.97 -.23 .23 .97 -196.66 -347.94)" xlink:href="#a"/><linearGradient id="b" x1="433.67" x2="406.63" y1="255.32" y2="372.18" gradientUnits="userSpaceOnUse"><stop offset="0" stop-color="#3f8d80" class="stopColor3f8d80 svgShape"/><stop offset="1" stop-color="#073c4e" class="stopColor073c4e svgShape"/></linearGradient><linearGradient id="j" x1="419.21" x2="435.38" y1="902.46" y2="999.91" gradientTransform="rotate(-18.53 -1588.267 747.323)" xlink:href="#b"/><linearGradient id="d" x1="14.43" x2="25.58" y1="353.55" y2="353.55" gradientUnits="userSpaceOnUse"><stop offset="0" stop-color="#fac92a" class="stopColorfac92a svgShape"/><stop offset="1" stop-color="#f17f30" class="stopColorf17f30 svgShape"/></linearGradient><linearGradient id="g" x1="190.01" x2="251.53" y1="333.06" y2="351.56" gradientUnits="userSpaceOnUse"><stop offset=".12" stop-color="#f16433" stop-opacity="0" class="stopColorf16433 svgShape"/><stop offset=".91" stop-color="#c52327" class="stopColorc52327 svgShape"/></linearGradient><linearGradient id="h" x1="218.57" x2="352.56" y1="224.94" y2="207.85" gradientUnits="userSpaceOnUse"><stop offset="0" stop-color="#8b4b53" class="stopColor8b4b53 svgShape"/><stop offset=".39" stop-color="#2d327d" class="stopColor2d327d svgShape"/></linearGradient><linearGradient id="k" x1="298.28" x2="317.85" y1="240.29" y2="231.38" gradientUnits="userSpaceOnUse"><stop offset="0" stop-color="#0e1538" class="stopColor0e1538 svgShape"/><stop offset=".94" stop-color="#2d327d" class="stopColor2d327d svgShape"/></linearGradient><linearGradient id="l" x1="220.02" x2="379.27" y1="307.27" y2="307.27" gradientUnits="userSpaceOnUse"><stop offset="0" stop-color="#f16433" class="stopColorf16433 svgShape"/><stop offset="1" stop-color="#d83227" class="stopColord83227 svgShape"/></linearGradient><linearGradient id="c" x1="266.96" x2="306.12" y1="236.01" y2="229.16" gradientUnits="userSpaceOnUse"><stop offset=".22" stop-color="#f9beb7" class="stopColorf9beb7 svgShape"/><stop offset="1" stop-color="#e95158" class="stopColore95158 svgShape"/></linearGradient><linearGradient id="m" x1="233.6" x2="291.03" y1="184.01" y2="204.08" gradientUnits="userSpaceOnUse"><stop offset="0" stop-color="#f9beb7" class="stopColorf9beb7 svgShape"/><stop offset="1" stop-color="#e95158" class="stopColore95158 svgShape"/></linearGradient><linearGradient id="n" x1="246.94" x2="252.48" y1="358.27" y2="358.27" xlink:href="#c"/><linearGradient id="o" x1="242.52" x2="246.75" y1="357.68" y2="357.68" xlink:href="#c"/><linearGradient id="p" x1="229.73" x2="375.95" y1="336.11" y2="336.11" xlink:href="#c"/><linearGradient id="e" x1="50.23" x2="221.31" y1="300.18" y2="355.11" gradientUnits="userSpaceOnUse"><stop offset="0" stop-color="#a4c8ea" class="stopColora4c8ea svgShape"/><stop offset="1" stop-color="#5c7fbe" class="stopColor5c7fbe svgShape"/></linearGradient><linearGradient id="q" x1="21.65" x2="50.12" y1="357.52" y2="357.52" xlink:href="#d"/><linearGradient id="r" x1="23.05" x2="52.71" y1="311.82" y2="311.82" xlink:href="#e"/><linearGradient id="s" x1="79.99" x2="202.7" y1="175.83" y2="175.83" gradientUnits="userSpaceOnUse"><stop offset=".22" stop-color="#fac92a" class="stopColorfac92a svgShape"/><stop offset="1" stop-color="#f17f30" class="stopColorf17f30 svgShape"/></linearGradient><linearGradient id="t" x1="-3592.33" x2="-3499.3" y1="226.72" y2="321.89" gradientTransform="matrix(-1 0 0 1 -3527.53 0)" xlink:href="#d"/><linearGradient id="f" x1="254.98" x2="281.05" y1="162.93" y2="170.87" gradientUnits="userSpaceOnUse"><stop offset="0" stop-color="#8b4b53" class="stopColor8b4b53 svgShape"/><stop offset="1" stop-color="#2d327d" stop-opacity="0" class="stopColor2d327d svgShape"/></linearGradient><linearGradient id="u" x1="258.26" x2="294.4" y1="159.42" y2="170.41" xlink:href="#f"/><linearGradient id="v" x1="260.27" x2="295.5" y1="155.47" y2="166.19" xlink:href="#f"/><linearGradient id="w" x1="223.99" x2="244.29" y1="169.51" y2="176.61" gradientUnits="userSpaceOnUse"><stop offset="0" stop-color="#8b4b53" class="stopColor8b4b53 svgShape"/><stop offset="1" stop-color="#2d327d" class="stopColor2d327d svgShape"/></linearGradient><linearGradient id="x" x1="227.67" x2="255.27" y1="282.53" y2="295.06" gradientUnits="userSpaceOnUse"><stop offset=".35" stop-color="#f16433" stop-opacity="0" class="stopColorf16433 svgShape"/><stop offset="1" stop-color="#c52327" class="stopColorc52327 svgShape"/></linearGradient><linearGradient id="y" x1="305.27" x2="341.11" y1="300.97" y2="311.75" xlink:href="#g"/><linearGradient id="z" x1="14.74" x2="454.73" y1="378.86" y2="378.86" xlink:href="#h"/></defs><path fill="url(#a)" d="M467,179.19c5-3.3,12.69-10.19,11.16-13.47-1.74-3.7-15.63-3.39-24.62,3.85a26.1,26.1,0,0,0-8.25,12.28,300.48,300.48,0,0,0,2.49-30.32,84.57,84.57,0,0,0,5.95-16.48c2-8,3.72-15.06.76-17.18s-10.29,1.31-13.84,6.41c-5.1,7.31-1.52,16.45-.77,18.21a22.42,22.42,0,0,0,7.06,9c-.42,7.13-1.11,14.67-2.09,22.54a24.77,24.77,0,0,0-7.59-11.67c-2.86-2.39-8.37-5.79-10.06-4.29-1.91,1.7.75,10,6.69,14.08a17,17,0,0,0,10.86,2.72c-.43,3.4-.9,6.84-1.46,10.37a346.92,346.92,0,0,1-7.4,35,45.6,45.6,0,0,0-5.28-19.53c-2.49-4.46-7.59-11.32-9.79-9.82-2.5,1.71-1.72,14.44,3.67,22.46a18.47,18.47,0,0,0,11.13,7.9c-1.53,5.67-3.12,11.08-4.76,16.18l1.37.64c0-.05,0-.1.05-.15,3.57.78,17.8,3.19,25.71-5.65,2.58-2.88,5.78-8.4,3.94-11.06-2.59-3.76-15.13-1.61-23,5.29a25.17,25.17,0,0,0-4.88,5.87c2-6.52,4-13.55,5.77-21.06,10.8,3.1,21,.88,25.91-5.63,3.18-4.19,4.93-11.13,2.31-13.66-3.51-3.39-14.64,1.39-21.34,7.9a31.27,31.27,0,0,0-6.24,8.6c1.64-7.25,3.11-14.91,4.29-23A40,40,0,0,0,467,179.19Z"/><path fill="url(#i)" d="M369.05,217.16c2.91-3.1,7.13-9.13,5.53-11.15-1.8-2.28-11.38.2-16.43,6.69a18.64,18.64,0,0,0-3.72,9.85,212.9,212.9,0,0,0-3.21-21.41,60.3,60.3,0,0,0,1.43-12.39c.07-5.88.12-11.05-2.27-12s-6.92,2.59-8.55,6.7c-2.34,5.89,1.63,11.64,2.44,12.74a16,16,0,0,0,6.36,5.1c.87,5,1.63,10.34,2.23,16a17.71,17.71,0,0,0-7.16-6.84c-2.38-1.19-6.75-2.65-7.67-1.34-1,1.49,2.14,6.8,6.93,8.67a12,12,0,0,0,8,.11c.26,2.43.49,4.89.68,7.43a250.07,250.07,0,0,1,.58,25.45A32.45,32.45,0,0,0,347.34,238c-2.45-2.69-7.1-6.61-8.38-5.21-1.45,1.59,1.17,10.29,6.21,15a13.11,13.11,0,0,0,9,3.65c-.13,4.18-.35,8.19-.66,12l1.06.22s0-.07,0-.11c2.6,0,12.85-.69,16.89-8.11,1.32-2.42,2.64-6.76.93-8.31-2.41-2.18-10.75,1.36-15.05,7.42a17.66,17.66,0,0,0-2.43,4.86c.35-4.85.56-10,.57-15.53,8,.39,14.66-2.81,17-8.13,1.52-3.43,1.6-8.52-.63-9.84-3-1.78-9.91,3.35-13.5,9a22.64,22.64,0,0,0-2.92,7c0-5.29-.28-10.84-.78-16.63A28.47,28.47,0,0,0,369.05,217.16Z"/><path fill="url(#b)" d="M373.75,375.09c-11.73-27.92-9.43-47.93-6.92-58.47.59-2.48,4.46-18.75,10.51-19s10.4,16.12,13.34,15.39c4.68-1.16-4.87-42.81,6.41-48,3.52-1.61,6.36,1.58,13.34-.51.84-.25,8.26-2.58,12.05-8.72,6.73-10.9-4.16-23.78,1-28.72,4.45-4.25,12.8,4.93,24.88,2.31,15.19-3.31,20.62-21.89,26.67-19.75,3.75,1.33,4.21,9.36,4.36,12,.54,9.49-4.12,11.89-4.1,19.49,0,11.7,11.08,14.83,9.23,21.8-2.14,8.07-17.36,5.39-24.88,18-1.12,1.88-4.49,7.52-2.56,12.57,2.71,7.08,13.17,6,14.87,11.79,1.6,5.46-5.8,12.65-10.77,16.16-12.92,9.14-27.77,6.43-28.21,9.75s14.09,4.31,15.9,11.28c2.25,8.61-16,21.8-31,28C400.83,377.46,384.59,376.79,373.75,375.09Z"/><path fill="#5eacc3" d="M464.54,230.2a237.8,237.8,0,0,1-11.65,42.32,250.83,250.83,0,0,1-18.8,39.73,203.73,203.73,0,0,1-12.17,18.34c-2.13,3-4.49,5.81-6.77,8.69s-4.74,5.6-7.32,8.21a164.1,164.1,0,0,1-16.09,15l-4.31,3.41L383,369.1l-2.24,1.59-2.32,1.48-4.65,2.92a173.1,173.1,0,0,0,17.52-13.17A163.5,163.5,0,0,0,407,346.7c2.51-2.65,4.78-5.5,7.17-8.26s4.57-5.68,6.67-8.67,4.19-6,6.24-9,3.93-6.14,5.74-9.31a262.87,262.87,0,0,0,19-39.37q4-10.2,7.18-20.7C461.16,244.43,463,237.36,464.54,230.2Z" class="color5eacc3 svgShape"/><path fill="url(#j)" d="M356.71,376.77c-20-22.74-24.18-42.45-25.15-53.24-.22-2.54-1.72-19.19,3.94-21.33s15,12,17.54,10.35c4.07-2.59-18.22-39-9.16-47.51,2.83-2.64,6.53-.52,12.48-4.72.72-.51,7-5.07,8.66-12.1,2.91-12.47-11.5-21.23-8.16-27.56,2.87-5.44,13.71.61,24.32-5.72,13.36-8,12.6-27.3,19-27.19,4,.06,7,7.53,8,10,3.53,8.82-.13,12.58,2.3,19.78,3.75,11.09,15.22,10.54,15.68,17.74.54,8.33-14.74,10.62-17.88,24.92-.47,2.14-1.87,8.56,1.56,12.73,4.82,5.85,14.39,1.5,17.85,6.46,3.25,4.67-1.48,13.84-5.08,18.74-9.34,12.77-24.28,14.93-23.65,18.21S413.67,316,417.6,322c4.87,7.46-8.27,25.76-20.54,36.37C383.13,370.42,367.53,374.94,356.71,376.77Z"/><path fill="#5eacc3" d="M396.75,210.54a237.88,237.88,0,0,1,2.41,43.83A251.59,251.59,0,0,1,394,298a205.51,205.51,0,0,1-5.71,21.25c-1.08,3.52-2.42,6.94-3.66,10.39-1.4,3.39-2.72,6.82-4.33,10.12a166.18,166.18,0,0,1-10.49,19.33l-3,4.6-3.22,4.46-1.62,2.22-1.72,2.13-3.48,4.25a173.46,173.46,0,0,0,12.42-18,163.67,163.67,0,0,0,10.05-19.42c1.54-3.31,2.79-6.74,4.18-10.11,1.21-3.44,2.52-6.84,3.56-10.34s2.08-7,3.07-10.5,1.77-7.07,2.48-10.65A263.6,263.6,0,0,0,398,254.32q.54-10.94.23-21.9C398.07,225.11,397.6,217.81,396.75,210.54Z" class="color5eacc3 svgShape"/><path fill="url(#d)" d="M25.58,361.23H22.11a7.68,7.68,0,1,1,0-15.36H24v1.51H22.11a6.17,6.17,0,0,0,0,12.33h3.47Z"/><polygon fill="url(#g)" points="225.25 305.99 218.15 354.77 165.61 378.07 255.27 377.28 261.59 302.24 225.25 305.99"/><path fill="url(#h)" d="M248.35,142.23c-2.59,1.09-13.18,5.51-17.69,16.16-2.32,5.48-2.12,10.42-1,19,2.91,22.88,6.51,27.51,7.44,38.46,1.39,16.37-5.49,19.58-9.24,40.78-1.91,10.85-3.06,26.74,1.29,47.19L358.37,283c3-13.24,1.29-22.64-.77-28.72-4.51-13.29-11.74-13.75-22.83-35.13-3.57-6.9-4.9-10.85-9.74-17.44-5.57-7.57-8.39-8.56-12.82-14.87-6.62-9.44-4.24-12.81-9.24-22.06-1-1.82-10.86-19.45-30.51-24.1A38.67,38.67,0,0,0,248.35,142.23Z"/><path fill="url(#k)" d="M294.27,181.58a42.46,42.46,0,0,1,14.67,14.36c9.21,15.42,2.39,29,12.29,38.37,5.4,5.11,8.28,1.89,17.92,7.4,15.28,8.73,24.83,26.66,21.48,30.51-2.36,2.72-11.21-1.47-20.44-5.92-27.77-13.4-61.69-29.76-61.91-54.66C278.24,207,279.33,195.44,294.27,181.58Z"/><path fill="url(#l)" d="M353.59,300.38q12.78,38.78,25.55,77.53H248.86V314.82q-14.42-3.24-28.84-6.48a80.31,80.31,0,0,1,1.92-9,86.2,86.2,0,0,1,22-37.79,78.21,78.21,0,0,1,9.74-8.18A80.39,80.39,0,0,1,275,242.57a19.39,19.39,0,0,0,5,1.93c11,2.47,20.65-6.18,22.32-7.69a66.07,66.07,0,0,1,13.46.37,67.26,67.26,0,0,1,18.71,5.32s19.94,5.45,44.76,52.76A190.83,190.83,0,0,1,353.59,300.38Z"/><path fill="url(#c)" d="M266.3,217.12a100.14,100.14,0,0,1,6.41,27.69c.12,1.39.2,2.76.26,4.11q7.81,10.12,15.64,20.26A100,100,0,0,0,304,243.79c.76-1.83,1.44-3.62,2.05-5.39a32,32,0,0,1-10-9.74c-2.93-4.54-3.84-8.64-5.39-15.9a113.83,113.83,0,0,1-2.3-17.44Z"/><path fill="url(#m)" d="M235.78,177.75a97,97,0,0,1,6.16,17.06c3.09,12,1.56,15.57,5.13,20.77,4.4,6.41,13.85,11.28,23.72,9.49A24.16,24.16,0,0,0,290,206.22a23,23,0,0,0-1.54-13.08c1-.21,4.63-1.07,6.54-4.23,2.88-4.75.62-12.49-3.71-13.53-3.79-.91-7.62,3.66-7.83,3.91a38.48,38.48,0,0,1-35.39-21.54,41.67,41.67,0,0,1-6.15,13.08A41.22,41.22,0,0,1,235.78,177.75Z"/><path fill="#e95158" d="M286.18,181.6a3.76,3.76,0,0,1,2.11-2.37,4,4,0,0,1,4,1.34c1.95,2.23,1.22,6.63-1.09,7.82-1.24.65-3.25.52-4-.51a2.58,2.58,0,0,1-.38-1.28C286.17,182.58,285.91,182.41,286.18,181.6Z" class="colore95158 svgShape"/><path fill="url(#n)" d="M251.75,351s2,15.1-.67,15.77-4.14-16.92-4.14-16.92Z"/><path fill="url(#o)" d="M246.75,350.18q-1.27,16.56-2.31,16.54t-1.92-18.08Z"/><path fill="url(#p)" d="M339.2,302.83l2,30.91s-53.08.19-69.24,4.42c0,0-12.5-2.31-16.34-1.35s-4.62,3.66-4.62,3.66-5.19-1-6.35,3.08c0,0-11.73,14.61-14.42,20.77-.29.65-.74,2.07-.27,2.43.3.22,1.29.25,6.9-5a129.94,129.94,0,0,0,9.33-9.71s13.66,5.58,23.85-.77c0,0,74.5,28.46,88.6,24.1,7.57-2.33,12.11-5,14.62-8.91,3.28-5.07,2.75-10.73,2.57-13.14-.95-12-1.1-31.12-.86-56.88Z"/><polygon fill="#4a6fa4" points="219.76 377.91 110.51 377.91 63.32 277.38 172.57 277.38 219.76 377.91" class="color4a6fa4 svgShape"/><polygon fill="url(#e)" points="213.99 377.91 104.74 377.91 57.55 277.38 166.8 277.38 213.99 377.91"/><path fill="#4a6fa4" d="M214.63,367.54h63a5.07,5.07,0,0,1,5.07,5.07v5.32a0,0,0,0,1,0,0H214.63a0,0,0,0,1,0,0V367.54A0,0,0,0,1,214.63,367.54Z" class="color4a6fa4 svgShape"/><path fill="url(#q)" d="M42.19,378.17H29.57a2.74,2.74,0,0,1-2.72-2.39l-5.2-38.9H50.12l-5.2,38.9A2.75,2.75,0,0,1,42.19,378.17Z"/><path fill="url(#r)" d="M32,333c-1.51-4.11-1-6.69-.26-8.33,1.67-3.5,5.61-4.41,5.64-7.44A5,5,0,0,0,36,314.05c-2.9-3.34-7.39-1.08-10.38-3.46-3.2-2.53-3.38-9.29-.77-13.72,3.56-6,12.2-7.53,17.82-5.26,10.61,4.31,12.69,23,6.8,28.86-3.63,3.59-10,2.07-14.88,8.07A16.29,16.29,0,0,0,32,333Z"/><path fill="url(#s)" d="M193.47,148.52H89.22A9.23,9.23,0,0,0,80,157.75v23.46a9.24,9.24,0,0,0,9.23,9.24h8.85v12.69l14.46-12.69h80.94a9.24,9.24,0,0,0,9.23-9.24V157.75A9.23,9.23,0,0,0,193.47,148.52Z"/><path fill="url(#t)" d="M36,216.35H72.91a9.23,9.23,0,0,1,9.23,9.23v23.47a9.23,9.23,0,0,1-9.23,9.23H64.06V271L49.6,258.28H36a9.24,9.24,0,0,1-9.24-9.23V225.58A9.24,9.24,0,0,1,36,216.35Z"/><path fill="url(#f)" d="M252.06,155.66A31.38,31.38,0,0,0,282.13,176a38.73,38.73,0,0,1-30.07-20.29Z"/><path fill="url(#u)" d="M253.1,153a38.08,38.08,0,0,0,14.56,13.43c14.25,7.34,28.31,2.68,31.06,1.7a43.24,43.24,0,0,1-28.83-1.77A42.29,42.29,0,0,1,253.1,153Z"/><path fill="url(#v)" d="M254.38,152.05c-.1.16,6.53,6.29,16.64,10,15,5.48,28.67,2.23,28.66,2.07A59.5,59.5,0,0,1,273.24,162,67.65,67.65,0,0,1,254.38,152.05Z"/><path fill="url(#w)" d="M248.09,157.75s-4.17,22.49-30.39,29.75a53.27,53.27,0,0,0,20.88-17.33,63.17,63.17,0,0,1-6.35,4.58,64,64,0,0,1-11.72,5.79A135,135,0,0,0,248.09,157.75Z"/><path fill="#f9c8ca" d="M275,161.23a17.91,17.91,0,0,0-17.79,16c0,.18,0,.36,0,.54s0,.62,0,.93c0,.1,0,.19,0,.3l-.05,0v.07c0,.11,0,.2,0,.3l-2.59.81a17.87,17.87,0,0,0-33.49,6.66,4.89,4.89,0,0,0,0,.54q0,.47,0,.93a17.87,17.87,0,0,0,35.65,1.87,5.12,5.12,0,0,0,0-.56,11.49,11.49,0,0,0,.06-1.31,17.59,17.59,0,0,0-1.36-6.82l-.13-.33,2-.62a17.87,17.87,0,0,0,35.55,0c0-.18,0-.37,0-.56s0-.62,0-.92A17.87,17.87,0,0,0,275,161.23Zm-19.81,28.26c0,.17,0,.34-.05.5a16.36,16.36,0,0,1-32.63-1.66c0-.26,0-.52,0-.78a4.38,4.38,0,0,1,0-.5,16.35,16.35,0,0,1,32.66,1.28C255.25,188.72,255.24,189.11,255.21,189.49Zm36.15-9.63a4,4,0,0,1,0,.5,16.36,16.36,0,0,1-32.63-1.66c0-.26,0-.52,0-.76a2.76,2.76,0,0,1,.05-.51,16.35,16.35,0,0,1,32.66,1.27C291.41,179.09,291.39,179.48,291.36,179.86Z" class="colorf9c8ca svgShape"/><path fill="#973636" d="M275,161.23a17.91,17.91,0,0,0-17.79,16c0,.18,0,.36,0,.54,0,.41-.06.82-.06,1.25v.07c0,.11,0,.2,0,.3l-2.59.81a17.87,17.87,0,0,0-33.49,6.66,4.89,4.89,0,0,0,0,.54,11.66,11.66,0,0,0-.06,1.32,17.87,17.87,0,0,0,35.68,1.48,5.12,5.12,0,0,0,0-.56c0-.3,0-.62,0-.92a17.81,17.81,0,0,0-1.49-7.15l.16-.06,1.85-.56a17.87,17.87,0,0,0,35.58-.38c0-.18,0-.37,0-.56s0-.62,0-.92A17.87,17.87,0,0,0,275,161.23Zm-52.47,26.32a4.38,4.38,0,0,1,0-.5,16.36,16.36,0,0,1,32.63,1.67c0,.26,0,.51,0,.77s0,.34-.05.5a16.35,16.35,0,0,1-32.66-1.27C222.5,188.33,222.52,187.93,222.55,187.55Zm36.15-9.61a2.76,2.76,0,0,1,.05-.51,16.36,16.36,0,0,1,32.63,1.66c0,.26,0,.52,0,.77a4,4,0,0,1,0,.5,16.35,16.35,0,0,1-32.66-1.27C258.66,178.7,258.67,178.32,258.7,177.94Z" class="color973636 svgShape"/><path fill="#f9c8ca" d="M292.79 180.76c0-.31 0-.63 0-.93A17.88 17.88 0 00257.16 178a17.88 17.88 0 0135.69 1.47Q292.85 180.1 292.79 180.76zM257.16 180l-2.59.81a17.87 17.87 0 00-33.49 6.66 17.87 17.87 0 0133.52-7.06l2.54-.79v.08C257.14 179.83 257.16 179.92 257.16 180z" class="colorf9c8ca svgShape"/><path fill="#e9f3fb" d="M261,210.61l12.14-8a7.33,7.33,0,0,1-12.14,8Z" class="colore9f3fb svgShape"/><ellipse cx="247.55" cy="189.5" fill="#2d327d" rx="2" ry="2.59" transform="matrix(.93 -.36 .36 .93 -52.01 103.15)" class="color2d327d svgShape"/><ellipse cx="266.87" cy="185.06" fill="#2d327d" rx="2" ry="2.59" transform="rotate(-21.35 266.929 185.073)" class="color2d327d svgShape"/><path fill="url(#x)" d="M250.33,263.53l-1.47,51.29q-14.42-3.24-28.84-6.48a80.31,80.31,0,0,1,1.92-9,86.2,86.2,0,0,1,22-37.79Z"/><polygon fill="url(#y)" points="341.19 333.74 339.2 302.83 331.75 278 303.75 284.96 312.2 333.99 341.19 333.74"/><path fill="#f48468" d="M273,248.92l15.64,20.26q2.26-2.79,4.48-6a109.31,109.31,0,0,0,13-24.82l-2.59-1.82a13.06,13.06,0,0,1,4.54,1.18c1.78,1-11.55,28.44-19.35,34.86,0,0-18.07-21.33-18.47-25.08s2.27-4.64,2.27-4.64Z" class="colorf48468 svgShape"/><polygon fill="#f48468" points="339.2 302.83 379.27 295.26 378.9 290.59 338.61 299.87 339.2 302.83" class="colorf48468 svgShape"/><polygon fill="#f48468" points="248.86 314.82 217.55 307.77 218.15 303.23 248.56 311.92 248.86 314.82" class="colorf48468 svgShape"/><path fill="#fcde2e" d="M292.37,210.68h-.06c-1.95-.16-2.91-7.66-3.16-12.07-.11-1.76-.35-7.52.77-7.75a.56.56,0,0,1,.46.16.18.18,0,0,1,0,.26.19.19,0,0,1-.27,0,.25.25,0,0,0-.13-.07c-.36.07-.76,2.46-.48,7.36.39,6.58,1.6,11.62,2.82,11.72a.62.62,0,0,0,.36-.12c1.16-.65.69-3.77-.17-8.46-.54-3-1.14-6.05-1.77-9.07a.18.18,0,0,1,.14-.22.19.19,0,0,1,.23.14c.63,3,1.23,6.08,1.78,9.08,1,5.46,1.31,8.11,0,8.86A1,1,0,0,1,292.37,210.68Z" class="colorfcde2e svgShape"/><ellipse cx="127.94" cy="325.84" fill="#ffffff" rx="4.59" ry="10.66" transform="rotate(-22.74 127.976 325.877)" class="colorfff svgShape"/><rect width="439.99" height="4.74" x="14.74" y="376.49" fill="url(#z)"/><path fill="#2d327d" d="M101.1 168.64L96 167l.49-1.56 5.12 1.9-.06-5.71h1.61l-.13 5.76 5-2 .51 1.56-5.14 1.77 3.44 4.54-1.31 1-3.3-4.71-3.15 4.68-1.31-.94zM124.6 168.64L119.48 167l.49-1.56 5.12 1.9L125 161.6h1.61l-.13 5.76 5-2L132 167l-5.14 1.77 3.44 4.54-1.31 1-3.3-4.71-3.15 4.68-1.31-.94zM144.15 168.64L139 167l.49-1.56 5.12 1.9-.06-5.71h1.61l-.13 5.76 5-2 .51 1.56-5.14 1.77 3.44 4.54-1.31 1-3.3-4.71-3.15 4.68-1.31-.94zM167.65 168.64L162.53 167l.49-1.56 5.12 1.9-.06-5.71h1.61l-.13 5.76 5-2 .51 1.56-5.14 1.77 3.45 4.54-1.32 1-3.3-4.71-3.15 4.68-1.31-.94zM57.94 232.1H48.75A2.71 2.71 0 0046 234.81V244a2.71 2.71 0 002.72 2.71h9.19A2.72 2.72 0 0060.67 244v-9.2A2.72 2.72 0 0057.94 232.1zM54.07 240a.8.8 0 00-.43.69v1.53H53v-1.53a.8.8 0 00-.43-.69 1.38 1.38 0 111.46 0z" class="color2d327d svgShape"/><path fill="#2d327d" d="M59,237.31H57.79v-6.66a4.31,4.31,0,0,0-8.61,0v6.06H48v-6.06a5.54,5.54,0,0,1,11.07,0Z" class="color2d327d svgShape"/></svg>